<svg xmlns="http://www.w3.org/2000/svg" width="128" height="128" xml:space="preserve">
	<path fill="#282D33" d="M72.324 61.09c-5.336 0-9.677-4.29-9.677-9.563 0-5.271 4.341-9.56 9.677-9.56 5.336.001 9.676 4.29 9.676 9.56 0 5.273-4.34 9.563-9.676 9.563zm0-15.123c-3.131 0-5.678 2.494-5.678 5.56 0 3.067 2.547 5.563 5.678 5.563 3.129 0 5.676-2.496 5.676-5.563 0-3.065-2.547-5.56-5.676-5.56z" />
	<path fill="#282D33" d="M109.023 128h-4V82.95l.594-.587c8.783-8.67 13.619-20.187 13.619-32.43C119.236 24.605 98.309 4 72.584 4 46.857 4 25.927 24.606 25.927 49.934c0 .696.026 1.384.058 2.075l.027.592-14.265 24.338h9.814v20.925c0 6.025 4.987 10.927 11.116 10.927h22.778V128h-4v-15.209H32.677c-8.335 0-15.116-6.696-15.116-14.927V80.939H4.764l17.199-29.341a43.755 43.755 0 0 1-.037-1.664C21.927 22.4 44.652 0 72.584 0c27.93 0 50.652 22.4 50.652 49.933 0 13.042-5.041 25.324-14.213 34.679V128z" />
	<path fill="#282D33" d="M72.324 37.296 61.325 26.467l2.807-2.85 8.192 8.066 8.194-8.066 2.806 2.85z" />
	<path fill="#282D33" d="M70.323 12.76h4v18.857h-4zM80.518 79.08l-8.196-8.062-8.191 8.062-2.805-2.851 10.996-10.823 11 10.823z" />
	<path fill="#282D33" d="M70.323 71.084h4v18.855h-4z" />
	<g>
		<path fill="#282D33" d="M97.623 62.228 86.592 51.351l11.031-10.878 2.809 2.848-8.143 8.03 8.143 8.028z" />
		<path fill="#282D33" d="M92.354 49.35h19.141v4H92.354z" />
	</g>
	<g>
		<path fill="#282D33" d="m47.023 62.227-2.809-2.848 8.143-8.03-8.143-8.028 2.809-2.848 11.031 10.875z" />
		<path fill="#282D33" d="M33.152 49.35h19.141v4H33.152z" />
	</g>
</svg>
