<svg xmlns="http://www.w3.org/2000/svg" viewBox="0 0 256 256" style="enable-background:new 0 0 256 256" xml:space="preserve">
	<style>
		.st1{fill:#fc657e}.st5{fill:#f5c84c}.st7{fill:#70d6f9}.st23{fill:#f9d0b4}
	</style>
	<g id="Layer_46">
		<path class="st7" d="m233.542 219.122-15.933-29.751c-1.621-3.027-3.204-6.081-4.516-9.254a26.694 26.694 0 0 0-18.155-15.691l-27.747-6.984-11.415-5.628a14.367 14.367 0 0 1-8.013-12.885v-4.584c-5.916 3.725-12.899 5.892-20.368 5.892a38.096 38.096 0 0 1-19.159-5.163v3.855c0 5.47-3.107 10.466-8.013 12.885l-11.415 5.628-27.747 6.984a26.696 26.696 0 0 0-18.154 15.69c-1.312 3.174-2.895 6.228-4.516 9.255l-15.933 29.751c-8.335 15.565 2.367 34.379 20.238 34.379h170.608c17.87-.001 28.575-18.813 20.238-34.379z" />
		<path class="st23" d="M165.821 66.968a2.06 2.06 0 0 0-1.984-2.02c-15.966-.468-24.378-6.796-27.61-9.964a2.07 2.07 0 0 0-3.076.193C119.114 72.83 98.406 70.339 91.444 68.882c-1.265-.265-2.479.689-2.48 1.981v30.941c0 21.137 17.294 38.432 38.432 38.432 21.137 0 38.432-17.294 38.432-38.432V67.569c-.001-.2-.003-.401-.007-.601z" />
		<path d="M157.469 26.203c-4.095 0-7.924 1.157-11.214 3.13-3.844-6.414-10.845-10.745-18.826-10.745h-11.273c-21.818 0-39.669 17.851-39.669 39.669v17.775a15.965 15.965 0 0 1 12.477-3.322v-1.847c.001-1.293 1.215-2.246 2.48-1.981 6.962 1.457 27.67 3.948 41.707-13.704a2.068 2.068 0 0 1 3.076-.193c3.232 3.168 11.645 9.496 27.61 9.964a2.06 2.06 0 0 1 1.984 2.02c.004.2.006.4.006.601v5.141a16.037 16.037 0 0 1 2.466-.196c4.325 0 8.243 1.72 11.129 4.502V48.156c0-12.074-9.879-21.953-21.953-21.953z" style="fill:#5b5d60" />
		<path class="st23" d="M168.293 72.514c-.84 0-1.662.071-2.466.196v29.094c0 .867-.04 1.725-.097 2.577.837.135 1.688.224 2.563.224 8.862 0 16.045-7.184 16.045-16.046.001-8.861-7.183-16.045-16.045-16.045zM88.964 101.804V72.71a16.037 16.037 0 0 0-2.466-.196c-8.862 0-16.045 7.184-16.045 16.046 0 8.862 7.184 16.046 16.045 16.046.875 0 1.726-.089 2.563-.224v-.001a37.914 37.914 0 0 1-.097-2.577z" />
		<path class="st1" d="M143.958 184.531c-4.302-4.006-11.073-3.698-15.23.458a1.03 1.03 0 0 1-1.456 0c-4.156-4.156-10.928-4.464-15.23-.458-4.516 4.206-4.611 11.279-.284 15.605l14.003 14.002a3.168 3.168 0 0 0 4.48 0l14.003-14.002c4.325-4.325 4.23-11.399-.286-15.605z" />
		<path class="st23" d="M155.777 151.813a14.367 14.367 0 0 1-8.013-12.885v-4.584c-5.916 3.725-12.899 5.892-20.368 5.892a38.096 38.096 0 0 1-19.159-5.163v3.855c0 5.47-3.107 10.466-8.013 12.885l-1.788.882c5.722 10.488 16.837 17.659 29.565 17.659s23.843-7.171 29.565-17.659l-1.789-.882zM171.193 222.03c-2.74 0-5.368-1.089-7.305-3.026a10.33 10.33 0 0 0-7.305-3.026h-4.799a3.026 3.026 0 0 0-3.026 3.026 3.026 3.026 0 0 1-3.026 3.026h-4.74a6.759 6.759 0 0 0-6.759 6.759v12.313A12.4 12.4 0 0 0 146.63 253.5h28.749v-31.461l.001-.009h-4.187zM115.008 222.03h-4.74a3.026 3.026 0 0 1-3.026-3.026 3.026 3.026 0 0 0-3.026-3.026h-4.799c-2.74 0-5.368 1.088-7.305 3.026a10.334 10.334 0 0 1-7.305 3.026h-4.188l.001.009V253.5h28.749a12.397 12.397 0 0 0 12.397-12.398v-12.313a6.757 6.757 0 0 0-6.758-6.759z" />
		<path d="M168.32 66.919a4.548 4.548 0 0 0-4.41-4.47c-15.348-.45-23.249-6.619-25.933-9.25a4.559 4.559 0 0 0-3.482-1.301 4.585 4.585 0 0 0-3.301 1.724C118.256 69.89 99.442 68 91.956 66.434a4.55 4.55 0 0 0-3.818.926 4.51 4.51 0 0 0-1.674 3.529v30.915c0 22.57 18.362 40.932 40.932 40.932s40.932-18.362 40.932-40.932V67.569a35.326 35.326 0 0 0-.008-.65zm-4.993 34.885c0 19.813-16.119 35.932-35.932 35.932s-35.932-16.119-35.932-35.932V71.436c7.118 1.393 28.662 3.748 43.353-14.34 3.991 3.777 12.754 9.771 28.511 10.337v34.371z" />
		<path d="M157.469 23.703c-3.586 0-7.138.81-10.396 2.359-4.595-6.204-11.923-9.974-19.645-9.974h-11.273c-23.252 0-42.169 18.917-42.169 42.169v17.431a2.5 2.5 0 1 0 5 0v-17.43c0-20.495 16.674-37.169 37.169-37.169h11.273c6.768 0 13.16 3.652 16.682 9.53a2.5 2.5 0 0 0 3.43.859 19.322 19.322 0 0 1 9.929-2.774c10.726 0 19.453 8.727 19.453 19.453v28.136a2.5 2.5 0 1 0 5 0V48.156c0-13.484-10.969-24.453-24.453-24.453z" />
		<path d="M168.293 70.014c-.639 0-1.293.036-1.946.106a2.498 2.498 0 0 0-2.216 2.754 2.495 2.495 0 0 0 2.754 2.216c.474-.051.948-.077 1.408-.077 7.469 0 13.545 6.077 13.545 13.546 0 7.469-6.077 13.545-13.545 13.545-.418 0-.848-.025-1.314-.076a2.5 2.5 0 0 0-.545 4.971c.649.071 1.257.105 1.859.105 10.226 0 18.545-8.319 18.545-18.545s-8.319-18.545-18.545-18.545zM90.838 104.173a2.501 2.501 0 0 0-2.791-2.171c-.556.07-1.063.104-1.549.104-7.469 0-13.545-6.077-13.545-13.545 0-7.469 6.077-13.546 13.545-13.546.465 0 .944.027 1.426.08a2.504 2.504 0 0 0 2.757-2.213 2.5 2.5 0 0 0-2.213-2.757 18.3 18.3 0 0 0-1.97-.109c-10.226 0-18.545 8.32-18.545 18.546s8.319 18.545 18.545 18.545c.695 0 1.405-.046 2.169-.142a2.503 2.503 0 0 0 2.171-2.792zM145.662 182.702c-4.854-4.52-12.504-4.61-17.662-.417-5.16-4.191-12.809-4.1-17.662.417a13.244 13.244 0 0 0-4.253 9.532 13.228 13.228 0 0 0 3.906 9.67l14.002 14.002c1.07 1.071 2.494 1.66 4.008 1.66s2.938-.589 4.007-1.66l14.002-14.002a13.236 13.236 0 0 0 3.906-9.671 13.243 13.243 0 0 0-4.254-9.531zm-3.187 15.667-14.003 14.002c-.162.162-.346.195-.472.195s-.31-.034-.472-.195l-14.002-14.003a8.27 8.27 0 0 1-2.441-6.046 8.284 8.284 0 0 1 2.662-5.961c1.548-1.441 3.557-2.154 5.588-2.154 2.226 0 4.477.857 6.171 2.551a3.533 3.533 0 0 0 4.991 0c3.239-3.239 8.514-3.417 11.758-.396a8.28 8.28 0 0 1 2.662 5.961 8.278 8.278 0 0 1-2.442 6.046z" />
		<path d="m235.746 217.941-15.933-29.751c-1.437-2.684-3.082-5.816-4.409-9.029a29.113 29.113 0 0 0-10.628-13.033 29.094 29.094 0 0 0-9.227-4.127l-27.489-6.919-11.177-5.511a11.792 11.792 0 0 1-6.619-10.644v-3.595a2.5 2.5 0 1 0-5 0v3.595c0 6.47 3.605 12.267 9.408 15.128l11.415 5.628c.158.078.324.139.495.182l27.747 6.984a24.153 24.153 0 0 1 7.647 3.42 24.126 24.126 0 0 1 8.808 10.801c1.416 3.425 3.128 6.688 4.623 9.479L231.34 220.3c7.57 14.135-2.243 30.698-18.035 30.698H42.696c-15.788 0-25.606-16.56-18.035-30.699l15.933-29.75c1.851-3.455 3.346-6.389 4.624-9.48a24.123 24.123 0 0 1 8.807-10.801 24.13 24.13 0 0 1 7.647-3.42l27.747-6.984a2.49 2.49 0 0 0 .495-.182l11.415-5.628c5.803-2.861 9.408-8.658 9.408-15.128v-3.115a2.5 2.5 0 1 0-5 0v3.115c0 4.552-2.536 8.63-6.619 10.644l-11.177 5.511L60.452 162a29.116 29.116 0 0 0-9.227 4.127 29.101 29.101 0 0 0-10.627 13.032c-1.198 2.899-2.629 5.706-4.41 9.029l-15.933 29.751C10.948 235.319 23.067 256 42.696 256h170.607c19.635 0 31.747-20.685 22.443-38.059z" />
		<path d="M158.374 151.327a2.498 2.498 0 0 0-3.417.906c-5.598 9.636-15.927 15.622-26.957 15.622-11.11 0-21.476-6.051-27.054-15.791a2.5 2.5 0 0 0-4.339 2.485c6.466 11.292 18.495 18.306 31.393 18.306 12.805 0 24.79-6.939 31.28-18.11a2.5 2.5 0 0 0-.906-3.418zM218.599 215.271h-38.952a6.775 6.775 0 0 0-6.767 6.767V252.5a2.5 2.5 0 1 0 5 0v-30.461c0-.975.792-1.767 1.767-1.767h38.952a2.5 2.5 0 1 0 0-5.001z" />
		<path d="M175.021 219.53h-3.828a7.78 7.78 0 0 1-5.537-2.293 12.746 12.746 0 0 0-9.074-3.759h-4.798a5.532 5.532 0 0 0-5.526 5.526c0 .29-.236.526-.526.526h-4.739c-5.105 0-9.259 4.154-9.259 9.259v12.313a14.8 14.8 0 0 0 4.364 10.534 14.808 14.808 0 0 0 10.44 4.363h.016a2.5 2.5 0 0 0 .016-5 9.843 9.843 0 0 1-6.936-2.898 9.836 9.836 0 0 1-2.899-6.999v-12.313a4.264 4.264 0 0 1 4.259-4.259h4.739a5.532 5.532 0 0 0 5.526-5.526c0-.29.236-.526.526-.526h4.798c2.092 0 4.059.814 5.538 2.294a12.75 12.75 0 0 0 9.073 3.758h3.828a2.5 2.5 0 1 0-.001-5zM76.353 215.271H37.401a2.5 2.5 0 1 0 0 5h38.952c.975 0 1.767.792 1.767 1.767V252.5a2.5 2.5 0 1 0 5 0v-30.461a6.775 6.775 0 0 0-6.767-6.768z" />
		<path d="M115.008 219.53h-4.739a.527.527 0 0 1-.526-.526 5.532 5.532 0 0 0-5.526-5.526h-4.798c-3.428 0-6.65 1.335-9.073 3.758a7.781 7.781 0 0 1-5.538 2.294h-3.704a2.5 2.5 0 1 0 0 5h3.704c3.427 0 6.649-1.334 9.073-3.758a7.78 7.78 0 0 1 5.538-2.294h4.798c.29 0 .526.236.526.526a5.532 5.532 0 0 0 5.526 5.526h4.739a4.264 4.264 0 0 1 4.259 4.259v12.313a9.836 9.836 0 0 1-2.899 6.999 9.853 9.853 0 0 1-6.77 2.896 2.5 2.5 0 0 0 .058 5h.059a14.832 14.832 0 0 0 10.188-4.36 14.798 14.798 0 0 0 4.364-10.534V228.79c0-5.106-4.154-9.26-9.259-9.26zM182.442 146.034a2.5 2.5 0 0 0-3.534.114l-28.727 30.643a2.5 2.5 0 0 0 3.647 3.42l28.727-30.643a2.5 2.5 0 0 0-.113-3.534zM195.2 132.52a2.5 2.5 0 0 0-3.534.114l-6.461 6.892a2.5 2.5 0 0 0 3.647 3.42l6.461-6.892a2.5 2.5 0 0 0-.113-3.534zM175.003 183.774a2.499 2.499 0 0 0-3.151-1.603l-14.347 4.675a2.5 2.5 0 0 0 1.548 4.753l14.347-4.675a2.497 2.497 0 0 0 1.603-3.15zM221.405 171.058a2.5 2.5 0 0 0-3.074-1.746l-37.574 10.349a2.5 2.5 0 1 0 1.329 4.82l37.574-10.349a2.499 2.499 0 0 0 1.745-3.074zM197.005 201h-39a2.5 2.5 0 1 0 0 5h39a2.5 2.5 0 1 0 0-5zM105.819 176.79l-28.727-30.643a2.5 2.5 0 1 0-3.648 3.42l28.727 30.643c.492.525 1.157.79 1.824.79a2.5 2.5 0 0 0 1.824-4.21zM70.795 139.526l-6.461-6.892a2.5 2.5 0 1 0-3.648 3.42l6.461 6.892c.492.525 1.157.79 1.824.79a2.498 2.498 0 0 0 1.824-4.21zM98.496 186.847l-14.347-4.675a2.5 2.5 0 1 0-1.548 4.754l14.347 4.675a2.499 2.499 0 0 0 3.151-1.602 2.5 2.5 0 0 0-1.603-3.152zM75.243 179.661l-37.574-10.349a2.497 2.497 0 0 0-3.074 1.746 2.499 2.499 0 0 0 1.746 3.074l37.574 10.349a2.501 2.501 0 0 0 3.075-1.746 2.502 2.502 0 0 0-1.747-3.074zM97.995 201h-39a2.5 2.5 0 1 0 0 5h39a2.5 2.5 0 1 0 0-5z" />
		<path class="st5" d="M40.983 147.697c-4.498-.838-8.043-4.31-8.898-8.717a.2.2 0 0 0-.395 0c-.855 4.406-4.4 7.879-8.898 8.717a.195.195 0 0 0 0 .387c4.498.838 8.043 4.31 8.898 8.717a.2.2 0 0 0 .395 0c.855-4.406 4.4-7.879 8.898-8.717a.195.195 0 0 0 0-.387zM202.993 104.778c-3.019-.562-5.399-2.894-5.973-5.851a.134.134 0 0 0-.265 0c-.574 2.958-2.954 5.289-5.973 5.851a.131.131 0 0 0 0 .26c3.019.563 5.399 2.894 5.973 5.852a.135.135 0 0 0 .265 0c.574-2.958 2.954-5.289 5.973-5.852a.131.131 0 0 0 0-.26z" />
		<path class="st7" d="M189.694 15.302h-2.329v-2.33a3.156 3.156 0 1 0-6.314 0v2.33h-2.33a3.156 3.156 0 1 0 0 6.314h2.33v2.33a3.156 3.156 0 1 0 6.314 0v-2.33h2.329a3.156 3.156 0 1 0 0-6.314z" />
		<path class="st1" d="M50.999 120.06a3.377 3.377 0 1 0 0 6.754 3.377 3.377 0 0 0 0-6.754z" />
		<path d="M143.5 86.06a4.97 4.97 0 1 0 0 9.94 4.97 4.97 0 0 0 0-9.94zM112.5 86.06a4.97 4.97 0 1 0 0 9.94 4.97 4.97 0 0 0 0-9.94z" />
		<circle cx="154.999" cy="3.377" r="3.377" style="fill:#87d147" />
		<path d="M142.352 111.732a2.5 2.5 0 0 0-3.355-1.115c-3.175 1.591-6.977 2.432-10.997 2.432s-7.822-.841-10.997-2.432a2.499 2.499 0 1 0-2.24 4.47c3.866 1.938 8.443 2.962 13.237 2.962s9.371-1.024 13.237-2.962a2.5 2.5 0 0 0 1.115-3.355zM69.5 188.5A2.5 2.5 0 0 0 67 191v25.771a2.5 2.5 0 1 0 5 0V191a2.5 2.5 0 0 0-2.5-2.5zM186.5 188.5a2.5 2.5 0 0 0-2.5 2.5v25.771a2.5 2.5 0 1 0 5 0V191a2.5 2.5 0 0 0-2.5-2.5z" />
	</g>
</svg>
