<svg version="1.1" id="Layer_1" xmlns="http://www.w3.org/2000/svg" x="0" y="0" viewBox="0 0 500 500" style="enable-background:new 0 0 500 500" xml:space="preserve">
	<style>
		.st0{fill:#83e1e5}.st1{fill:#aab1ba}
	</style>
	<path class="st1" d="M244.726 69.075V5H214.84v88.688h35.6v64.723c0 2.586 3.622 3.178 4.446.728l30.275-90.063h-40.435zM94.905 29.677 159.8 94.572l-26.05 26.048 47.359 47.359c1.892 1.892-.325 4.976-2.721 3.785l-88.054-43.748 29.587-29.587-46.885-46.884 21.869-21.868zM405.096 29.677l-64.895 64.895 26.049 26.049-47.359 47.359c-1.892 1.892.325 4.976 2.721 3.785l88.054-43.748L380.08 98.43l46.885-46.885-21.869-21.868z" />
	<path class="st0" d="m351.134 472.293-38.14-116.454c-16.919 14.55-38.929 23.346-62.994 23.346s-46.074-8.796-62.994-23.346l-38.14 116.454A32.966 32.966 0 0 1 117.536 495h264.928a32.968 32.968 0 0 1-31.33-22.707z" />
	<path d="m380.771 375.292-16.829-38.793a40.49 40.49 0 0 1-3.345-16.113V290.81a61.574 61.574 0 0 0-4.928-24.137l-15.184-35.637a13.888 13.888 0 0 0-12.776-8.443h-1.853c-17.705-22.382-45.102-36.745-75.855-36.745-30.753 0-58.15 14.363-75.855 36.745h-1.853a13.888 13.888 0 0 0-12.776 8.443l-15.184 35.637a61.567 61.567 0 0 0-4.928 24.137v29.575a40.472 40.472 0 0 1-3.345 16.113l-16.829 38.793H84.533v87.644l.021-.039C85.002 479.931 98.856 495 117.536 495a32.967 32.967 0 0 0 31.33-22.707l38.14-116.454c16.919 14.549 38.929 23.346 62.994 23.346s46.074-8.797 62.994-23.346l38.14 116.454A32.968 32.968 0 0 0 382.464 495c18.68 0 32.534-15.069 32.983-32.103l.021.039v-87.644h-34.697z" style="fill:#fddf7f" />
	<path class="st0" d="M139.404 299.226h-6.64c-26.638 0-48.232 21.594-48.232 48.231v27.834h34.698l16.829-38.793a40.416 40.416 0 0 0 2.499-7.884c.56-2.7.845-5.457.845-8.229l.001-21.159zM367.237 299.226h-6.64v21.159a40.519 40.519 0 0 0 3.344 16.113l16.829 38.793h34.697v-27.834c.001-26.637-21.593-48.231-48.23-48.231z" />
	<path d="M93.977 271.764v-6.535h-6.535a5 5 0 0 1 0-10h6.535v-6.535a5 5 0 0 1 10 0v6.535h6.535a5 5 0 0 1 0 10h-6.535v6.535a5 5 0 0 1-10 0zm307.047 4.6a5 5 0 0 0 5-5v-6.534h6.535a5 5 0 0 0 0-10h-6.535v-6.535a5 5 0 0 0-10 0v6.535h-6.535a5 5 0 0 0 0 10h6.535v6.534a5 5 0 0 0 5 5zM52.151 490h-3.813a5 5 0 0 0 0 10h3.813a5 5 0 0 0 0-10zm383.539 5a5 5 0 0 1-5 5h-90.144a5 5 0 0 1 0-10h16.213a37.935 37.935 0 0 1-10.377-16.15l-35.907-109.636A101.667 101.667 0 0 1 250 384.185a101.665 101.665 0 0 1-60.475-19.971L153.618 473.85A37.935 37.935 0 0 1 143.241 490h16.213a5 5 0 0 1 0 10H69.311a5 5 0 0 1 0-10h22.423c-7.149-6.583-11.74-15.905-12.161-26.428a4.947 4.947 0 0 1-.041-.636v-87.645c0-.071.018-.137.021-.207l-.021-27.624c0-29.356 23.879-53.235 53.231-53.235h1.64v-3.416a66.206 66.206 0 0 1 5.328-26.097l15.185-35.637a18.848 18.848 0 0 1 16.836-11.463c19.406-23.394 47.783-36.764 78.248-36.764s58.842 13.371 78.247 36.764a18.85 18.85 0 0 1 16.836 11.463l15.185 35.637a66.224 66.224 0 0 1 5.328 26.097v3.416h1.64c29.352 0 53.231 23.879 53.231 53.231v115.479c0 .216-.014.43-.041.64-.422 10.521-5.012 19.842-12.16 26.424h22.424c2.762.001 5 2.24 5 5.001zm-70.093-190.774v16.159c0 4.887.986 9.639 2.932 14.124l15.523 35.783h26.417v-22.834c0-23.838-19.394-43.231-43.231-43.231h-1.641zM89.533 347.458l.017 22.834h26.399l15.523-35.783a35.289 35.289 0 0 0 2.932-14.124v-16.159h-1.64c-23.838 0-43.231 19.394-43.231 43.232zm92.72 6.831.001-.006 4.358-13.306a85.485 85.485 0 0 0 4.252-26.65V290.81a66.2 66.2 0 0 1 5.329-26.097l8.971-21.055c1.546-3.628 1.186-7.597-.989-10.888s-5.684-5.178-9.628-5.178h-22.254a8.875 8.875 0 0 0-8.176 5.403l-15.184 35.637a56.276 56.276 0 0 0-4.528 22.177v29.575a45.215 45.215 0 0 1-3.758 18.103l-16.829 38.793-.001.001-15.595 35.949a5.003 5.003 0 0 1-4.589 3.012 5 5 0 0 1-4.584-6.992l12.564-28.96h-22.08v82.148c.01.108.017.217.019.327.402 15.273 12.694 27.235 27.985 27.235a27.91 27.91 0 0 0 26.579-19.263l38.137-116.448zm124.931-.127-3.299-10.073a95.46 95.46 0 0 1-4.75-29.763V290.81a56.255 56.255 0 0 0-4.528-22.177l-8.972-21.055c-2.843-6.673-2.153-14.27 1.847-20.321s10.718-9.664 17.971-9.664h9.271c-17.115-17.113-40.169-26.744-64.724-26.744-24.555 0-47.609 9.631-64.724 26.744h9.271c7.253 0 13.972 3.613 17.971 9.664s4.689 13.648 1.847 20.321l-8.971 21.055a56.255 56.255 0 0 0-4.528 22.177v23.517a95.464 95.464 0 0 1-4.75 29.763l-3.299 10.073a91.67 91.67 0 0 0 57.184 20.023 91.677 91.677 0 0 0 57.183-20.024zM382.464 490c15.291 0 27.583-11.962 27.985-27.233.002-.11.009-.219.019-.328v-82.147h-22.073l12.564 28.96a5 5 0 1 1-9.173 3.98l-15.572-35.895c-.009-.02-.021-.036-.029-.056l-16.829-38.793a45.215 45.215 0 0 1-3.758-18.103V290.81a56.262 56.262 0 0 0-4.528-22.177l-15.184-35.637a8.875 8.875 0 0 0-8.176-5.403H305.455c-3.944 0-7.454 1.887-9.628 5.178s-2.536 7.259-.989 10.888l8.971 21.055a66.217 66.217 0 0 1 5.328 26.097v23.517a85.51 85.51 0 0 0 4.252 26.65l4.358 13.306 38.14 116.455A27.906 27.906 0 0 0 382.464 490zm69.2 0h-3.813a5 5 0 0 0 0 10h3.813a5 5 0 0 0 0-10zM277.652 335.771a13.739 13.739 0 0 0-10.834 5.247c-.729.922-1.82 1.451-2.992 1.451s-2.262-.528-2.992-1.451c-2.638-3.334-6.587-5.246-10.834-5.246s-8.196 1.912-10.835 5.247c-.729.922-1.819 1.45-2.991 1.45s-2.262-.529-2.992-1.451a13.739 13.739 0 0 0-10.834-5.247 13.74 13.74 0 0 0-10.834 5.246 5 5 0 0 0 7.841 6.205c.73-.922 1.82-1.451 2.992-1.451s2.262.529 2.991 1.451a13.74 13.74 0 0 0 10.834 5.247c4.249 0 8.197-1.913 10.833-5.246.73-.922 1.82-1.451 2.992-1.451s2.262.529 2.991 1.45a13.739 13.739 0 0 0 10.834 5.247c4.248 0 8.197-1.912 10.834-5.247.729-.922 1.819-1.451 2.991-1.451s2.262.529 2.992 1.451a4.998 4.998 0 0 0 7.023.818 4.998 4.998 0 0 0 .818-7.023 13.72 13.72 0 0 0-10.828-5.246zM112.85 98.43l-26.051 26.051a5 5 0 0 0 1.311 8.014l88.054 43.748a7.337 7.337 0 0 0 9.254-2.296 7.335 7.335 0 0 0-.772-9.502l-43.823-43.824 22.514-22.513a4.998 4.998 0 0 0 0-7.072L98.44 26.141a5.001 5.001 0 0 0-7.071 7.071l61.359 61.359-22.514 22.513a4.998 4.998 0 0 0 0 7.072l35.955 35.955-67.381-33.477 24.668-24.668a5 5 0 0 0 0-7.071L76.572 48.009a5.001 5.001 0 0 0-7.071 7.071l43.349 43.35zm207.701 78.589a7.381 7.381 0 0 0 3.287-.776l88.054-43.748a5.003 5.003 0 0 0 1.311-8.014L387.151 98.43l43.35-43.35a5 5 0 1 0-7.071-7.071l-46.885 46.885a5 5 0 0 0 0 7.071l24.668 24.668-67.381 33.477 35.955-35.955a4.998 4.998 0 0 0 0-7.072L347.273 94.57l61.359-61.359a5 5 0 1 0-7.071-7.071l-64.895 64.895a4.998 4.998 0 0 0 0 7.072l22.514 22.513-43.823 43.824a7.334 7.334 0 0 0-.772 9.502 7.332 7.332 0 0 0 5.966 3.073zM214.84 98.688h30.6v59.723a7.256 7.256 0 0 0 6.106 7.187 7.252 7.252 0 0 0 8.079-4.866L289.9 70.669a5.001 5.001 0 0 0-4.739-6.594h-35.435V5a5 5 0 0 0-10 0v64.076a5 5 0 0 0 5 5h33.479l-22.766 67.722v-48.11a5 5 0 0 0-5-5h-30.6V5a5 5 0 0 0-10 0v88.688c.001 2.761 2.24 5 5.001 5z" style="fill:#1c1d21" />
</svg>
